<svg width="38" height="37" viewBox="0 0 38 37" fill="none" xmlns="http://www.w3.org/2000/svg">
<path d="M32.0913 5.40866C28.6282 1.94555 23.9313 0 19.0337 0C14.1361 0 9.43915 1.94555 5.97604 5.40866C2.51293 8.87176 0.567383 13.5687 0.567383 18.4663C0.567383 23.3639 2.51293 28.0609 5.97604 31.524C9.43915 34.9871 14.1361 36.9326 19.0337 36.9326C23.9313 36.9326 28.6282 34.9871 32.0913 31.524C35.5545 28.0609 37.5 23.3639 37.5 18.4663C37.5 13.5687 35.5545 8.87176 32.0913 5.40866ZM19.0337 34.4575C10.2163 34.4575 3.04247 27.2839 3.04247 18.4663C3.04247 9.64875 10.2161 2.47509 19.0337 2.47509C27.8513 2.47509 35.0249 9.64875 35.0249 18.4663C35.0249 27.2839 27.8513 34.4575 19.0337 34.4575Z" fill="#00FF00"/>
<path d="M16.2508 22.3381L10.5726 16.66L8.82251 18.4101L16.2508 25.8384L29.2062 12.883L27.456 11.1329L16.2508 22.3381Z" fill="#00FF00"/>
</svg>
