<svg width="40" height="40" viewBox="0 0 40 40" fill="none" xmlns="http://www.w3.org/2000/svg">
<path d="M20 0C8.95433 0 0 8.95425 0 20C0 31.0457 8.95433 40 20 40C31.0457 40 40 31.0457 40 20C40 8.95433 31.0457 0 20 0ZM32.2565 32.2565C29.2173 35.2865 25.1588 37.0764 20.872 37.2776C16.5851 37.4787 12.3769 36.0766 9.06735 33.3444C5.75779 30.6123 3.58397 26.7459 2.96946 22.4985C2.35495 18.2511 3.34377 13.9271 5.74324 10.369C8.14271 6.81088 11.7809 4.27354 15.949 3.2514C20.1171 2.22925 24.5165 2.79552 28.2898 4.83986C32.0632 6.8842 34.9403 10.2602 36.3605 14.3099C37.7807 18.3597 37.6423 22.7932 35.9723 26.7465C35.1018 28.8063 33.8399 30.6776 32.2565 32.2565Z" fill="black"/>
<path d="M21.3845 12.4121L19.4988 10.5265L10.0254 19.9999L19.4988 29.4733L21.3845 27.5877L15.13 21.3332H30.75V18.6666H15.13L21.3845 12.4121Z" fill="black"/>
</svg>
